<svg xmlns="http://www.w3.org/2000/svg" viewBox="0 0 1440 320">
  <path fill="#0D324D" fill-opacity="1" d="M0,128L34.3,122.7C68.6,117,137,107,206,122.7C274.3,139,343,181,411,170.7C480,160,549,96,617,101.3C685.7,107,754,181,823,202.7C891.4,224,960,192,1029,149.3C1097.1,107,1166,53,1234,42.7C1302.9,32,1371,64,1406,80L1440,96L1440,320L1405.7,320C1371.4,320,1303,320,1234,320C1165.7,320,1097,320,1029,320C960,320,891,320,823,320C754.3,320,686,320,617,320C548.6,320,480,320,411,320C342.9,320,274,320,206,320C137.1,320,69,320,34,320L0,320Z"></path>
</svg>